<?xml version="1.0" encoding="utf-8"?>
<!-- Generator: Adobe Illustrator 18.0.0, SVG Export Plug-In . SVG Version: 6.00 Build 0)  -->
<!DOCTYPE svg PUBLIC "-//W3C//DTD SVG 1.1//EN" "http://www.w3.org/Graphics/SVG/1.1/DTD/svg11.dtd">
<svg version="1.1" id="图层_1" xmlns="http://www.w3.org/2000/svg" xmlns:xlink="http://www.w3.org/1999/xlink" x="0px" y="0px"
	 viewBox="0 0 580 130" enable-background="new 0 0 580 130" xml:space="preserve">
<g>
	<g>
		<path fill="#FFFFFF" d="M207.2,95.4c-0.1-0.5-0.3-0.9-0.6-1.4c-0.3-0.4-0.6-0.8-1-1.1c-0.4-0.3-0.9-0.6-1.4-0.7
			c-0.5-0.2-1.1-0.3-1.7-0.3c-0.9,0-1.6,0.2-2.4,0.5c-0.7,0.3-1.3,0.8-1.8,1.4s-0.9,1.4-1.1,2.3c-0.3,0.9-0.4,2-0.4,3.2
			s0.1,2.3,0.4,3.2c0.3,0.9,0.6,1.7,1.1,2.3c0.5,0.6,1.1,1.1,1.8,1.4c0.7,0.3,1.5,0.5,2.3,0.5c1.3,0,2.4-0.3,3.2-1s1.4-1.6,1.6-2.8
			h1.1c-0.1,0.8-0.3,1.5-0.7,2.1s-0.8,1.1-1.3,1.6c-0.5,0.4-1.1,0.7-1.8,1c-0.7,0.2-1.4,0.3-2.2,0.3c-1.1,0-2-0.2-2.8-0.6
			s-1.6-1-2.1-1.7c-0.6-0.7-1-1.6-1.4-2.7c-0.3-1.1-0.5-2.2-0.5-3.6c0-1.3,0.2-2.5,0.5-3.5s0.8-1.9,1.4-2.7c0.6-0.7,1.3-1.3,2.2-1.7
			c0.8-0.4,1.8-0.6,2.8-0.6c0.7,0,1.4,0.1,2.1,0.3c0.6,0.2,1.2,0.6,1.8,1c0.5,0.4,1,0.9,1.3,1.5c0.4,0.6,0.6,1.2,0.7,1.9L207.2,95.4
			L207.2,95.4z"/>
		<path fill="#FFFFFF" d="M228.9,107.4h-8.8V91h1.1v15.2h7.7L228.9,107.4L228.9,107.4z"/>
		<path fill="#FFFFFF" d="M246.5,90.7c1,0,2,0.2,2.8,0.6c0.9,0.4,1.6,1,2.2,1.7c0.6,0.7,1.1,1.6,1.5,2.7s0.5,2.2,0.5,3.5
			c0,1.3-0.2,2.4-0.5,3.5s-0.8,2-1.5,2.7c-0.6,0.8-1.4,1.3-2.2,1.8c-0.9,0.4-1.8,0.6-2.8,0.6s-2-0.2-2.9-0.6c-0.9-0.4-1.6-1-2.2-1.7
			s-1.1-1.6-1.5-2.7s-0.5-2.2-0.5-3.5c0-1.3,0.2-2.5,0.5-3.5c0.4-1,0.8-1.9,1.5-2.7c0.6-0.7,1.4-1.3,2.2-1.7
			C244.5,90.9,245.5,90.7,246.5,90.7z M246.5,106.5c0.9,0,1.6-0.2,2.4-0.5c0.7-0.3,1.3-0.8,1.9-1.4c0.5-0.6,0.9-1.4,1.2-2.3
			c0.3-0.9,0.4-2,0.4-3.1c0-1.2-0.1-2.2-0.4-3.1s-0.7-1.7-1.2-2.3s-1.1-1.1-1.9-1.4c-0.7-0.3-1.5-0.5-2.3-0.5
			c-0.9,0-1.7,0.2-2.4,0.5c-0.7,0.3-1.3,0.8-1.9,1.4c-0.5,0.6-0.9,1.4-1.2,2.3s-0.4,1.9-0.4,3.1s0.1,2.2,0.4,3.1
			c0.3,0.9,0.7,1.7,1.2,2.3c0.5,0.6,1.1,1.1,1.9,1.4C244.9,106.4,245.6,106.5,246.5,106.5z"/>
		<path fill="#FFFFFF" d="M270.8,107.7c-0.9,0-1.7-0.1-2.3-0.3c-0.6-0.2-1.2-0.5-1.6-0.8c-0.4-0.4-0.8-0.8-1-1.2s-0.4-1-0.6-1.5
			c-0.1-0.5-0.2-1.1-0.2-1.7s0-1.1,0-1.7V91h1.1v9.5c0,1.3,0.1,2.3,0.3,3.1c0.2,0.8,0.5,1.4,0.9,1.8s0.9,0.7,1.4,0.9s1.2,0.2,2,0.2
			c0.7,0,1.4-0.1,2-0.2s1.1-0.5,1.4-0.9c0.4-0.4,0.7-1.1,0.9-1.8c0.2-0.8,0.3-1.8,0.3-3V91h1.1v9.5c0,1.1-0.1,2.1-0.3,3
			c-0.2,0.9-0.5,1.6-0.9,2.3s-1,1.1-1.7,1.4S271.9,107.7,270.8,107.7z"/>
		<path fill="#FFFFFF" d="M300.8,99.1c0,5.6-2.5,8.3-7.5,8.3h-4.5V91h4.5c2.5,0,4.4,0.7,5.7,2S300.8,96.4,300.8,99.1z M299.7,99.1
			c0-1.1-0.1-2-0.3-2.9c-0.2-0.9-0.5-1.6-1-2.2c-0.5-0.6-1.1-1-2-1.4c-0.8-0.3-1.9-0.5-3.1-0.5h-3.4v14h3.4c1.2,0,2.3-0.2,3.1-0.5
			s1.5-0.8,2-1.4c0.5-0.6,0.8-1.4,1-2.2C299.6,101.2,299.7,100.2,299.7,99.1z"/>
		<path fill="#FFFFFF" d="M345.2,99.1c0,5.6-2.5,8.3-7.5,8.3h-4.5V91h4.5c2.5,0,4.4,0.7,5.7,2C344.6,94.3,345.2,96.4,345.2,99.1z
			 M344,99.1c0-1.1-0.1-2-0.3-2.9c-0.2-0.9-0.5-1.6-1-2.2c-0.5-0.6-1.1-1-2-1.4c-0.8-0.3-1.9-0.5-3.1-0.5h-3.4v14h3.4
			c1.2,0,2.3-0.2,3.1-0.5s1.5-0.8,2-1.4c0.5-0.6,0.8-1.4,1-2.2C343.9,101.2,344,100.2,344,99.1z"/>
		<path fill="#FFFFFF" d="M367.6,107.4h-10.8V91h10.4v1.2h-9.3v6.1h8.7v1.2h-8.7v6.8h9.7L367.6,107.4L367.6,107.4z"/>
		<path fill="#FFFFFF" d="M391,91l-5.9,16.4h-1.4L377.9,91h1.2l5.3,14.9l5.3-14.9H391z"/>
		<path fill="#FFFFFF" d="M412.7,107.4h-10.8V91h10.4v1.2H403v6.1h8.7v1.2H403v6.8h9.7V107.4z"/>
		<path fill="#FFFFFF" d="M433.3,107.4h-8.8V91h1.1v15.2h7.7L433.3,107.4L433.3,107.4z"/>
		<path fill="#FFFFFF" d="M450.9,90.7c1,0,2,0.2,2.8,0.6s1.6,1,2.2,1.7s1.1,1.6,1.5,2.7c0.4,1,0.5,2.2,0.5,3.5
			c0,1.3-0.2,2.4-0.5,3.5s-0.8,2-1.5,2.7c-0.6,0.8-1.4,1.3-2.2,1.8c-0.9,0.4-1.8,0.6-2.8,0.6c-1,0-2-0.2-2.9-0.6
			c-0.9-0.4-1.6-1-2.2-1.7c-0.6-0.8-1.1-1.6-1.5-2.7c-0.3-1.1-0.5-2.2-0.5-3.5c0-1.3,0.2-2.5,0.5-3.5c0.4-1,0.8-1.9,1.5-2.7
			c0.6-0.7,1.4-1.3,2.2-1.7S449.9,90.7,450.9,90.7z M450.9,106.5c0.9,0,1.6-0.2,2.4-0.5c0.7-0.3,1.3-0.8,1.9-1.4
			c0.5-0.6,0.9-1.4,1.2-2.3c0.3-0.9,0.4-2,0.4-3.1c0-1.2-0.1-2.2-0.4-3.1c-0.3-0.9-0.7-1.7-1.2-2.3s-1.1-1.1-1.9-1.4
			c-0.7-0.3-1.5-0.5-2.3-0.5c-0.9,0-1.7,0.2-2.4,0.5c-0.7,0.3-1.3,0.8-1.9,1.4s-0.9,1.4-1.2,2.3c-0.3,0.9-0.4,1.9-0.4,3.1
			s0.1,2.2,0.4,3.1c0.3,0.9,0.7,1.7,1.2,2.3c0.5,0.6,1.1,1.1,1.9,1.4C449.3,106.4,450.1,106.5,450.9,106.5z"/>
		<path fill="#FFFFFF" d="M469.5,91h5.4c0.7,0,1.4,0.1,2.1,0.2c0.7,0.1,1.3,0.4,1.8,0.7c0.5,0.3,0.9,0.8,1.2,1.4
			c0.3,0.6,0.5,1.3,0.5,2.2c0,1.6-0.5,2.8-1.4,3.7c-0.9,0.8-2.3,1.3-4,1.3h-4.5v6.9h-1.1L469.5,91L469.5,91z M470.6,99.3h4.5
			c0.8,0,1.4-0.1,2-0.2s1-0.4,1.3-0.7c0.3-0.3,0.6-0.7,0.7-1.1c0.2-0.5,0.2-1,0.2-1.6c0-0.7-0.1-1.3-0.3-1.8c-0.2-0.4-0.5-0.8-0.9-1
			c-0.4-0.2-0.9-0.4-1.4-0.5s-1.1-0.1-1.6-0.1h-4.5L470.6,99.3L470.6,99.3z"/>
		<path fill="#FFFFFF" d="M506,107.4h-1.1V92.9l-5.4,14.5h-1.1L493,92.9v14.5h-1.1V91h1.6l5.4,14.9l5.5-14.9h1.6L506,107.4
			L506,107.4z"/>
		<path fill="#FFFFFF" d="M528.9,107.4h-10.8V91h10.4v1.2h-9.3v6.1h8.7v1.2h-8.7v6.8h9.7V107.4z"/>
		<path fill="#FFFFFF" d="M552.2,107.4h-1.4l-9.1-15v15h-1.1V91h1.5l9,15V91h1.1V107.4z"/>
		<path fill="#FFFFFF" d="M574.6,92.2h-5.2v15.2h-1.1V92.2h-5.2V91h11.5L574.6,92.2L574.6,92.2z"/>
	</g>
	<g>
		<path fill="#FFFFFF" d="M241.2,68.3l-0.3,0.2c0,0-4,3.5-12.8,3.5c-12.7,0-23.4-11.7-23.4-25.6c0-13.9,10.7-25.6,23.4-25.6
			c6.4,0,11.7,2.3,16.1,7.1l1.7,1.8V17.8l-0.6-0.2c-0.2-0.1-5-1.7-17.2-1.7c-19.6,0-35.6,13.7-35.6,30.6c0,18.3,14.3,30.6,35.6,30.6
			c12.5,0,17.4-6.9,17.6-7.2l1-1.5L241.2,68.3z"/>
		<polygon fill="#FFFFFF" points="448.8,77 456.8,77 456.8,37.6 448.8,29.4 		"/>
		<path fill="#FFFFFF" d="M296.2,15.8c-17.5,0-31.8,13.7-31.8,30.6c0,16.9,14.3,30.6,31.8,30.6S328,63.3,328,46.4
			C328,29.6,313.7,15.8,296.2,15.8z M315.8,46.4c0,14.1-8.8,25.6-19.7,25.6s-19.7-11.5-19.7-25.6s8.8-25.6,19.7-25.6
			S315.8,32.3,315.8,46.4z"/>
		<path fill="#FFFFFF" d="M368,15.8C368,15.8,368,15.8,368,15.8c-0.1,0-2.8-0.2-6.9-0.2c-2.4,0-4.8,0.1-7.1,0.2
			c-8.6,0.6-13.8,1.3-13.9,1.4l-0.8,0.1v4.4l1,0c0.1,0,8.4-0.3,12.3-0.3c3.9,0,10.2,0.3,10.3,0.3c15.3,0.5,24.7,14.7,24.7,24.7
			c0,14.1-8.8,25.6-19.7,25.6l-9.2,0V29.7h-12.1V77h21.4c17.5,0,31.8-13.7,31.8-30.6C399.7,29.6,385.4,15.8,368,15.8z"/>
		<path fill="#FFFFFF" d="M564.4,45.5v25.2c-2.2,0.6-7.6,1.4-10,1.4c-12.7,0-23.4-11.7-23.4-25.6c0-13.9,10.7-25.6,23.4-25.6
			c6.4,0,11.7,2.3,16.1,7.1l1.7,1.8V17.8l-0.6-0.2c-0.2-0.1-5-1.7-17.2-1.7c-19.6,0-35.6,13.7-35.6,30.6c0,18.3,14.3,30.6,35.6,30.6
			c20.7,0,22.1-9.8,22.1-10.2l0-21.4H564.4z"/>
		<polygon fill="#FFFFFF" points="492.4,57.6 459.1,15.8 448.8,15.8 448.8,22 493.3,76.3 493.3,77 500.4,77 500.4,15.8 492.4,15.8 
					"/>
		<rect x="418.2" y="23.9" fill="#FFFFFF" width="12.1" height="3.5"/>
		<rect x="418.2" y="15.8" fill="#FFFFFF" width="12.1" height="2.4"/>
		<rect x="418.2" y="19.5" fill="#FFFFFF" width="12.1" height="3"/>
		<rect x="418.2" y="28.9" fill="#FFFFFF" width="12.1" height="48.1"/>
	</g>
</g>
<g>
	<ellipse fill="#FFFFFF" cx="52.8" cy="74.4" rx="2.6" ry="3.2"/>
	<ellipse fill="#FFFFFF" cx="115.6" cy="74.4" rx="2.6" ry="3.2"/>
	<path fill="#FFFFFF" d="M153.6,54c-4.3,0-8.1,2.8-10.3,6.9c-7.2-15.7-22.3-30.2-40.9-36.2C92.5,20.7,85.4,13,84.6,4
		c-0.9,9-7.9,16.7-17.9,20.7C48,30.6,33,45.2,25.8,60.8c-2.1-4.1-5.9-6.9-10.3-6.9C8.8,54,3.4,60.5,3.4,68.4c0,8,5.4,14.5,12.1,14.5
		c2,0,3.9-0.6,5.6-1.7c0.6,26,28.7,42.8,63.5,42.9c34.7,0,62.9-16.9,63.5-42.9c1.7,1.1,3.6,1.7,5.6,1.7c6.7,0,12.1-6.5,12.1-14.5
		C165.7,60.5,160.3,54,153.6,54z M21,73c-0.6,2.1-3.1,3-5.6,2c-2.5-1-4.1-3.5-3.6-5.6s3.1-3,5.6-2C19.9,68.4,21.5,70.9,21,73z
		 M84.6,116.9c-27.8,0-50.4-13.2-50.4-31.9c0-0.4,0-0.8,0-1.2c0-0.1,0-0.3,0-0.4c0-0.3,0-0.5,0.1-0.8c0-0.4,0.1-0.7,0.1-1.1
		c0,0,0-0.1,0-0.1c0.6-3.7,2-9.3,4.2-12.6c5.2-7.5,14.5-12.5,25.1-12.5c8.2,0,15.5,3,20.9,7.8c5.3-4.8,12.7-7.8,20.9-7.8
		c10.6,0,19.9,5,25.1,12.5c2.2,3.2,3.6,8.9,4.2,12.6c0,0,0,0.1,0,0.1c0.1,0.4,0.1,0.7,0.1,1.1c0,0.3,0.1,0.5,0.1,0.8
		c0,0.1,0,0.3,0,0.4c0,0.4,0,0.8,0,1.2C134.9,103.7,112.4,116.9,84.6,116.9z M153.7,75c-2.5,1-5,0.1-5.6-2s1-4.6,3.6-5.6
		s5-0.1,5.6,2C157.9,71.5,156.3,74,153.7,75z"/>
</g>
</svg>
