<?xml version="1.0" encoding="UTF-8" standalone="no"?>
<svg
   xmlns:dc="http://purl.org/dc/elements/1.1/"
   xmlns:cc="http://creativecommons.org/ns#"
   xmlns:rdf="http://www.w3.org/1999/02/22-rdf-syntax-ns#"
   xmlns:svg="http://www.w3.org/2000/svg"
   xmlns="http://www.w3.org/2000/svg"
   xmlns:sodipodi="http://sodipodi.sourceforge.net/DTD/sodipodi-0.dtd"
   xmlns:inkscape="http://www.inkscape.org/namespaces/inkscape"
   width="200"
   height="200"
   viewBox="0 0 200 200"
   version="1.1"
   id="svg3390"
   inkscape:version="0.91 r13725"
   sodipodi:docname="zhihu.svg">
  <metadata
     id="metadata3404">
    <rdf:RDF>
      <cc:Work
         rdf:about="">
        <dc:format>image/svg+xml</dc:format>
        <dc:type
           rdf:resource="http://purl.org/dc/dcmitype/StillImage" />
      </cc:Work>
    </rdf:RDF>
  </metadata>
  <sodipodi:namedview
     pagecolor="#ffffff"
     bordercolor="#666666"
     borderopacity="1"
     objecttolerance="10"
     gridtolerance="10"
     guidetolerance="10"
     inkscape:pageopacity="0"
     inkscape:pageshadow="2"
     inkscape:window-width="897"
     inkscape:window-height="638"
     id="namedview3402"
     showgrid="false"
     inkscape:zoom="2.505"
     inkscape:cx="100"
     inkscape:cy="100"
     inkscape:window-x="0"
     inkscape:window-y="0"
     inkscape:window-maximized="0"
     inkscape:current-layer="svg3390" />
  <defs
     id="defs3392">
    <style
       type="text/css"
       id="style3394"><![CDATA[
@font-face { font-family: ifont; src: url(http://at.alicdn.com/t/font_1442373896_4754455.eot?#iefix) format(embedded-opentype), url(http://at.alicdn.com/t/font_1442373896_4754455.woff) format(woff), url(http://at.alicdn.com/t/font_1442373896_4754455.ttf) format(truetype), url(http://at.alicdn.com/t/font_1442373896_4754455.svg#ifont) format(svg); font-style: normal; font-weight: normal; }

]]></style>
  </defs>
  <g
     class="transform-group"
     id="g3396">
    <g
       transform="scale(0.1953125, 0.1953125)"
       id="g3398">
      <path
         d="M940.350346 795.875372c0 78.651314-63.771419 142.42171-142.42171 142.42171L228.226446 938.297083c-78.655408 0-142.42785-63.772442-142.42785-142.42171L85.798597 226.174206c0-78.657454 63.772442-142.43092 142.42785-142.43092l569.70219 0c78.658478 0 142.431943 63.771419 142.431943 142.43092L940.350346 795.875372 940.350346 795.875372 940.350346 795.875372zM415.621441 543.356149l125.592416 0c0-29.528524-13.923104-46.824445-13.923104-46.824445L418.29534 496.531704c2.589988-53.492308 4.909823-122.148991 5.738701-147.648758l103.677291 0c0 0-0.561795-43.872207-12.091386-43.872207L333.378321 305.010739c0 0 10.970866-57.373709 25.593911-82.700537 0 0-54.417377-2.936889-72.981175 69.622684-18.560728 72.559573-46.402843 116.430756-49.355081 124.446313-2.953262 8.012488 16.031115 3.794419 24.043602 0 8.015557-3.797489 44.294832-16.876366 54.840002-67.496254l56.350402 0c0.760317 32.081673 2.990101 130.396839 2.287089 147.648758L258.148943 496.531704c-16.449647 11.809977-21.935592 46.824445-21.935592 46.824445l132.591831 0c-5.529947 36.614919-15.239076 83.812871-28.817326 108.834754-21.512966 39.655162-32.903388 75.934436-110.525256 138.368394 0 0-12.656251 9.280364 26.576285 5.9055 39.231513-3.371794 76.356039-13.497409 102.087073-64.962547 13.377682-26.756387 27.212782-60.697407 38.005592-95.121428l-0.038886 0.12075 109.259426 125.794008c0 0 14.34266-33.746592 3.797489-70.870094l-80.993662-90.697675-27.41949 20.278859-0.031722 0.099261c7.615445-26.700105 13.09218-53.095265 14.794961-76.061326C415.541623 544.492018 415.583578 543.92613 415.621441 543.356149L415.621441 543.356149zM415.621441 543.356149M567.366494 295.730375l0 435.349249 45.77044 0 18.752086 52.405557 79.32772-52.405557 99.978039 0L811.194778 295.730375 567.366494 295.730375 567.366494 295.730375zM764.089947 684.253132l-51.967582 0-64.817238 42.817178-15.318894-42.817178-16.177448 0L615.808786 344.31286l148.280138 0L764.088924 684.253132 764.089947 684.253132zM764.089947 684.253132"
         fill="#1371e6"
         id="path3400" />
    </g>
  </g>
  <path
     style="fill:#ffffff"
     d="m 45.041113,155.18774 c -0.193249,-0.31269 0.256874,-0.93368 1.239926,-1.71061 3.246409,-2.56571 12.03896,-11.80837 13.866257,-14.5761 2.86589,-4.34083 7.632287,-13.84644 8.756928,-17.4639 1.048524,-3.37263 2.445471,-9.76183 2.902136,-13.27346 l 0.272547,-2.09581 -12.825881,0 c -10.470389,0 -12.82588,-0.0985 -12.82588,-0.5363 0,-1.0462 1.63672,-5.27316 2.613134,-6.748618 l 0.991008,-1.497513 11.571182,0 11.571183,0 0,-8.519365 c 0,-4.685649 -0.118074,-11.247295 -0.262387,-14.581434 l -0.262386,-6.062073 -5.570891,0.110378 -5.570891,0.110378 -0.877858,2.425866 c -1.679133,4.640106 -4.22622,7.535207 -8.549432,9.717557 -2.667562,1.346581 -5.652662,2.018771 -5.652662,1.272875 0,-0.25201 0.819283,-2.08949 1.820628,-4.083288 2.771178,-5.517744 5.16815,-11.63135 6.951687,-17.730648 2.070544,-7.080794 3.101014,-9.283121 5.560255,-11.883405 2.220197,-2.347531 4.838659,-3.840819 7.317932,-4.17336 1.49136,-0.200033 1.607793,-0.152301 1.318829,0.540654 -1.424279,3.415516 -2.076477,5.429041 -3.220199,9.941693 l -1.315297,5.189621 18.222955,0.199601 18.222954,0.199601 0.53671,1.120104 c 0.29519,0.616058 0.63785,2.457375 0.76146,4.091816 l 0.22475,2.971713 -10.003598,0 -10.003601,0 -0.220852,2.894211 c -0.121468,1.591817 -0.318684,6.037924 -0.438258,9.88024 -0.119574,3.842315 -0.330255,9.093872 -0.468182,11.670127 l -0.250774,4.6841 10.932405,0.10632 10.93241,0.106319 0.9226,2.325653 c 0.50743,1.279107 1.02737,3.210247 1.15542,4.291417 l 0.23281,1.96576 -12.243779,0 c -9.454654,0 -12.275494,0.11368 -12.382983,0.49901 -0.07656,0.27445 -0.343444,2.05645 -0.593078,3.95999 -0.249633,1.90355 -0.866744,5.09866 -1.371357,7.10025 -1.040839,4.12858 -1.044684,4.126 2.339961,1.57057 1.212807,-0.91568 2.271515,-1.59479 2.352685,-1.50912 0.08117,0.0857 3.660808,4.09905 7.954752,8.91865 7.700328,8.64297 7.810886,8.79262 8.078599,10.93533 0.35678,2.85556 -0.0078,7.90808 -0.689705,9.55841 l -0.542331,1.31253 -10.332223,-11.89137 c -5.682723,-6.54025 -10.507333,-11.89137 -10.721354,-11.89137 -0.214022,0 -1.155592,2.15569 -2.092379,4.79042 -7.082514,19.91971 -12.228765,25.02556 -26.197763,25.99213 -2.844241,0.1968 -3.9131,0.13854 -4.138122,-0.22555 z"
     id="path3406"
     inkscape:connector-curvature="0" />
  <path
     style="fill:#ffffff"
     d="m 122.90055,151.04739 c -0.3384,-0.91638 -1.13415,-3.10328 -1.76833,-4.85977 l -1.15306,-3.19361 -4.44068,-0.11287 -4.44068,-0.11288 0,-42.50189 0,-42.501899 23.5529,0 23.55289,0 0,42.514969 0,42.51497 -9.78691,0 -9.78692,0 -7.55696,4.95957 -7.55697,4.95957 -0.61528,-1.66616 z m 10.22761,-13.243 6.336,-4.19162 4.9785,0 4.9785,0 0,-33.33333 0,-33.333332 -14.57086,0 -14.57086,0 0,33.309232 0,33.30924 1.48821,0.1239 c 1.4758,0.12286 1.49882,0.15217 2.76307,3.51711 0.70117,1.86627 1.36196,3.70758 1.46843,4.09182 0.10646,0.38423 0.32844,0.6986 0.49329,0.6986 0.16485,0 3.15092,-1.88623 6.63572,-4.19162 z"
     id="path3408"
     inkscape:connector-curvature="0" />
</svg>
